<mxfile host="Electron" modified="2023-11-30T21:14:22.090Z" agent="Mozilla/5.0 (Macintosh; Intel Mac OS X 10_15_7) AppleWebKit/537.36 (KHTML, like Gecko) draw.io/22.1.2 Chrome/114.0.5735.289 Electron/25.9.4 Safari/537.36" etag="bJjVffjZNhx8dw3wgCvo" version="22.1.2" type="device">
  <diagram name="Page-1" id="r7BQNqdHgPFIEVvD-THo">
    <mxGraphModel dx="1114" dy="799" grid="1" gridSize="10" guides="1" tooltips="1" connect="1" arrows="1" fold="1" page="1" pageScale="1" pageWidth="827" pageHeight="1169" math="0" shadow="0">
      <root>
        <mxCell id="0" />
        <mxCell id="1" parent="0" />
        <mxCell id="pqUXZ9R5hv7aduJAewJo-5" value="" style="edgeStyle=orthogonalEdgeStyle;rounded=0;orthogonalLoop=1;jettySize=auto;html=1;" edge="1" parent="1" source="pqUXZ9R5hv7aduJAewJo-1" target="pqUXZ9R5hv7aduJAewJo-4">
          <mxGeometry relative="1" as="geometry" />
        </mxCell>
        <mxCell id="pqUXZ9R5hv7aduJAewJo-1" value="Sign up as investor" style="rounded=0;whiteSpace=wrap;html=1;" vertex="1" parent="1">
          <mxGeometry x="350" y="380" width="120" height="60" as="geometry" />
        </mxCell>
        <mxCell id="pqUXZ9R5hv7aduJAewJo-7" value="" style="edgeStyle=orthogonalEdgeStyle;rounded=0;orthogonalLoop=1;jettySize=auto;html=1;" edge="1" parent="1" source="pqUXZ9R5hv7aduJAewJo-4" target="pqUXZ9R5hv7aduJAewJo-6">
          <mxGeometry relative="1" as="geometry" />
        </mxCell>
        <mxCell id="pqUXZ9R5hv7aduJAewJo-4" value="Search for startup" style="whiteSpace=wrap;html=1;rounded=0;" vertex="1" parent="1">
          <mxGeometry x="350" y="520" width="120" height="60" as="geometry" />
        </mxCell>
        <mxCell id="pqUXZ9R5hv7aduJAewJo-9" value="" style="edgeStyle=orthogonalEdgeStyle;rounded=0;orthogonalLoop=1;jettySize=auto;html=1;" edge="1" parent="1" source="pqUXZ9R5hv7aduJAewJo-6">
          <mxGeometry relative="1" as="geometry">
            <mxPoint x="410" y="800" as="targetPoint" />
          </mxGeometry>
        </mxCell>
        <mxCell id="pqUXZ9R5hv7aduJAewJo-6" value="Make an offer" style="whiteSpace=wrap;html=1;rounded=0;" vertex="1" parent="1">
          <mxGeometry x="350" y="660" width="120" height="60" as="geometry" />
        </mxCell>
        <mxCell id="pqUXZ9R5hv7aduJAewJo-15" value="" style="edgeStyle=orthogonalEdgeStyle;rounded=0;orthogonalLoop=1;jettySize=auto;html=1;" edge="1" parent="1" source="pqUXZ9R5hv7aduJAewJo-10">
          <mxGeometry relative="1" as="geometry">
            <mxPoint x="260" y="850" as="targetPoint" />
          </mxGeometry>
        </mxCell>
        <mxCell id="pqUXZ9R5hv7aduJAewJo-19" value="Accepted" style="edgeLabel;html=1;align=center;verticalAlign=middle;resizable=0;points=[];" vertex="1" connectable="0" parent="pqUXZ9R5hv7aduJAewJo-15">
          <mxGeometry x="0.2571" y="2" relative="1" as="geometry">
            <mxPoint as="offset" />
          </mxGeometry>
        </mxCell>
        <mxCell id="pqUXZ9R5hv7aduJAewJo-17" style="edgeStyle=orthogonalEdgeStyle;rounded=0;orthogonalLoop=1;jettySize=auto;html=1;exitX=1;exitY=0.5;exitDx=0;exitDy=0;exitPerimeter=0;entryX=1;entryY=0.5;entryDx=0;entryDy=0;" edge="1" parent="1" source="pqUXZ9R5hv7aduJAewJo-10" target="pqUXZ9R5hv7aduJAewJo-4">
          <mxGeometry relative="1" as="geometry">
            <Array as="points">
              <mxPoint x="580" y="850" />
              <mxPoint x="580" y="550" />
            </Array>
          </mxGeometry>
        </mxCell>
        <mxCell id="pqUXZ9R5hv7aduJAewJo-18" value="Declined" style="edgeLabel;html=1;align=center;verticalAlign=middle;resizable=0;points=[];" vertex="1" connectable="0" parent="pqUXZ9R5hv7aduJAewJo-17">
          <mxGeometry x="0.0642" y="-1" relative="1" as="geometry">
            <mxPoint as="offset" />
          </mxGeometry>
        </mxCell>
        <mxCell id="pqUXZ9R5hv7aduJAewJo-25" value="counter offer" style="edgeStyle=orthogonalEdgeStyle;rounded=0;orthogonalLoop=1;jettySize=auto;html=1;" edge="1" parent="1" source="pqUXZ9R5hv7aduJAewJo-10">
          <mxGeometry relative="1" as="geometry">
            <mxPoint x="410" y="1000" as="targetPoint" />
          </mxGeometry>
        </mxCell>
        <mxCell id="pqUXZ9R5hv7aduJAewJo-10" value="Check offer&lt;br&gt;status" style="strokeWidth=2;html=1;shape=mxgraph.flowchart.decision;whiteSpace=wrap;" vertex="1" parent="1">
          <mxGeometry x="360" y="800" width="100" height="100" as="geometry" />
        </mxCell>
        <mxCell id="pqUXZ9R5hv7aduJAewJo-21" value="" style="ellipse;html=1;shape=startState;fillColor=#000000;strokeColor=#FFFFFF;" vertex="1" parent="1">
          <mxGeometry x="395" y="290" width="30" height="30" as="geometry" />
        </mxCell>
        <mxCell id="pqUXZ9R5hv7aduJAewJo-22" value="" style="edgeStyle=orthogonalEdgeStyle;html=1;verticalAlign=bottom;endArrow=open;endSize=8;rounded=0;" edge="1" source="pqUXZ9R5hv7aduJAewJo-21" parent="1">
          <mxGeometry relative="1" as="geometry">
            <mxPoint x="410" y="380" as="targetPoint" />
          </mxGeometry>
        </mxCell>
        <mxCell id="pqUXZ9R5hv7aduJAewJo-23" value="" style="ellipse;html=1;shape=endState;fillColor=#000000;strokeColor=#000000;" vertex="1" parent="1">
          <mxGeometry x="230" y="835" width="30" height="30" as="geometry" />
        </mxCell>
        <mxCell id="pqUXZ9R5hv7aduJAewJo-27" value="Accept" style="edgeStyle=orthogonalEdgeStyle;rounded=0;orthogonalLoop=1;jettySize=auto;html=1;exitX=0;exitY=0.5;exitDx=0;exitDy=0;exitPerimeter=0;entryX=0.5;entryY=1;entryDx=0;entryDy=0;" edge="1" parent="1" source="pqUXZ9R5hv7aduJAewJo-26" target="pqUXZ9R5hv7aduJAewJo-23">
          <mxGeometry relative="1" as="geometry" />
        </mxCell>
        <mxCell id="pqUXZ9R5hv7aduJAewJo-28" style="edgeStyle=orthogonalEdgeStyle;rounded=0;orthogonalLoop=1;jettySize=auto;html=1;exitX=1;exitY=0.5;exitDx=0;exitDy=0;exitPerimeter=0;entryX=1;entryY=0.5;entryDx=0;entryDy=0;" edge="1" parent="1" source="pqUXZ9R5hv7aduJAewJo-26" target="pqUXZ9R5hv7aduJAewJo-4">
          <mxGeometry relative="1" as="geometry">
            <Array as="points">
              <mxPoint x="770" y="1050" />
              <mxPoint x="770" y="550" />
            </Array>
          </mxGeometry>
        </mxCell>
        <mxCell id="pqUXZ9R5hv7aduJAewJo-29" value="Decline" style="edgeLabel;html=1;align=center;verticalAlign=middle;resizable=0;points=[];" vertex="1" connectable="0" parent="pqUXZ9R5hv7aduJAewJo-28">
          <mxGeometry x="0.045" y="-1" relative="1" as="geometry">
            <mxPoint as="offset" />
          </mxGeometry>
        </mxCell>
        <mxCell id="pqUXZ9R5hv7aduJAewJo-30" style="edgeStyle=orthogonalEdgeStyle;rounded=0;orthogonalLoop=1;jettySize=auto;html=1;exitX=0.5;exitY=0;exitDx=0;exitDy=0;exitPerimeter=0;" edge="1" parent="1" source="pqUXZ9R5hv7aduJAewJo-26" target="pqUXZ9R5hv7aduJAewJo-10">
          <mxGeometry relative="1" as="geometry" />
        </mxCell>
        <mxCell id="pqUXZ9R5hv7aduJAewJo-26" value="Decide on&lt;br&gt;&amp;nbsp;counter offer" style="strokeWidth=2;html=1;shape=mxgraph.flowchart.decision;whiteSpace=wrap;" vertex="1" parent="1">
          <mxGeometry x="360" y="1000" width="100" height="100" as="geometry" />
        </mxCell>
      </root>
    </mxGraphModel>
  </diagram>
</mxfile>
